<?xml version="1.0" standalone="no"?>
<!DOCTYPE svg PUBLIC "-//W3C//DTD SVG 20010904//EN"
 "http://www.w3.org/TR/2001/REC-SVG-20010904/DTD/svg10.dtd">
<svg version="1.0" xmlns="http://www.w3.org/2000/svg"
 width="1600.000000pt" height="1600.000000pt" viewBox="0 0 1600.000000 1600.000000"
 preserveAspectRatio="xMidYMid meet">
<metadata>
Created by potrace 1.14, written by Peter Selinger 2001-2017
</metadata>
<g transform="translate(0.000000,1600.000000) scale(0.100000,-0.100000)"
fill="#000000" stroke="none">
<path d="M6886 15634 c-4 -9 -5 -19 -2 -21 4 -4 88 -29 130 -38 121 -28 431
-132 561 -190 186 -83 371 -175 445 -224 47 -30 65 -41 80 -48 8 -4 17 -9 20
-13 3 -3 30 -21 60 -40 94 -58 248 -175 395 -300 99 -84 428 -426 473 -491 9
-13 19 -26 22 -29 15 -12 112 -144 177 -240 160 -239 290 -497 411 -820 20
-51 100 -316 107 -350 2 -8 8 -35 15 -60 14 -53 15 -59 36 -174 31 -179 51
-163 61 46 3 79 7 787 7 1573 l1 1430 -1496 3 c-1382 2 -1497 1 -1503 -14z"/>
<path d="M9950 13751 l0 -1899 23 -3 c12 -2 864 -4 1892 -4 l1870 1 3 1902 2
1902 -1895 0 -1895 0 0 -1899z"/>
<path d="M5809 15604 c-85 -6 -175 -15 -200 -19 -24 -3 -57 -9 -74 -11 -16 -2
-41 -6 -55 -9 -14 -3 -41 -7 -60 -10 -37 -6 -179 -38 -245 -55 -22 -6 -49 -13
-60 -15 -11 -3 -31 -9 -45 -14 -14 -5 -59 -19 -100 -31 -41 -13 -95 -31 -120
-40 -25 -10 -76 -31 -115 -45 -298 -115 -640 -310 -895 -512 -201 -159 -439
-389 -585 -567 -22 -27 -47 -57 -56 -67 -8 -10 -24 -30 -35 -44 -19 -27 -98
-132 -112 -150 -4 -5 -23 -35 -42 -65 -19 -30 -37 -57 -40 -60 -14 -13 -142
-246 -187 -341 -135 -281 -230 -550 -298 -839 -28 -122 -32 -142 -45 -230 -22
-153 -25 -185 -36 -360 -3 -63 -10 -144 -14 -180 -4 -38 -3 -67 2 -71 5 -3
840 -6 1855 -6 1339 0 1846 3 1848 11 12 35 16 469 21 2019 l6 1728 -78 -3
c-44 -1 -149 -8 -235 -14z"/>
<path d="M6172 13742 l3 -1877 180 -1 c99 -1 898 -5 1775 -9 877 -3 1614 -8
1637 -10 32 -2 42 1 45 14 9 35 -4 379 -17 466 -3 17 -7 48 -10 70 -62 462
-217 924 -451 1342 -41 74 -220 351 -234 363 -3 3 -33 41 -67 85 -33 44 -69
90 -79 101 -11 12 -41 47 -68 79 -91 104 -267 277 -391 382 -259 218 -605 434
-895 557 -36 15 -78 34 -95 41 -16 7 -64 25 -105 40 -41 15 -91 33 -111 40
-145 54 -525 143 -684 160 -16 1 -48 5 -70 9 -63 9 -151 16 -263 21 l-102 4 2
-1877z"/>
<path d="M2407 11793 c-6 -11 -1 -202 7 -283 18 -170 75 -443 125 -605 10 -33
27 -87 36 -120 10 -33 29 -89 42 -125 14 -36 34 -90 46 -120 11 -30 28 -74 39
-97 10 -23 18 -44 18 -47 0 -16 145 -297 160 -311 17 -16 20 -15 48 14 16 17
42 50 58 74 39 57 136 189 149 203 5 6 24 29 40 50 43 56 167 193 251 278 24
24 182 172 215 201 67 60 220 180 299 234 91 63 241 161 246 161 3 0 18 9 33
19 45 32 249 136 356 180 55 23 114 48 130 56 58 26 422 143 533 171 98 25
112 32 112 50 l0 21 -1469 2 c-808 1 -1471 -2 -1474 -6z"/>
<path d="M6068 11765 c-2 -1 -66 -5 -143 -9 -77 -3 -153 -8 -170 -10 -16 -3
-55 -7 -85 -11 -146 -15 -342 -52 -510 -96 -114 -30 -277 -81 -315 -98 -11 -5
-47 -19 -80 -31 -180 -68 -414 -186 -635 -320 -30 -19 -57 -37 -60 -40 -3 -3
-29 -21 -58 -39 -30 -19 -59 -39 -65 -46 -7 -6 -32 -25 -57 -42 -25 -17 -55
-39 -67 -49 -11 -11 -40 -35 -64 -54 -106 -87 -326 -301 -434 -424 -127 -144
-139 -159 -189 -226 -22 -30 -44 -57 -47 -60 -11 -9 -149 -224 -149 -232 0
-11 114 -178 203 -297 238 -320 553 -619 882 -836 50 -33 92 -62 95 -65 6 -6
24 -17 143 -86 127 -73 288 -152 402 -199 50 -20 104 -42 120 -50 46 -20 260
-91 350 -116 103 -28 377 -85 448 -93 30 -4 63 -8 74 -10 69 -14 428 -24 439
-13 4 4 7 803 8 1776 1 1655 0 1770 -16 1774 -9 3 -18 4 -20 2z"/>
<path d="M10008 11762 l-58 -3 -1 -1492 c-1 -1531 -3 -1803 -14 -1989 l-6
-108 738 -1 c406 0 945 -2 1198 -4 488 -3 1771 -7 1794 -6 11 1 12 24 7 129
-4 70 -8 139 -11 152 -2 14 -6 45 -9 70 -4 25 -8 56 -10 70 -3 14 -7 41 -10
60 -17 114 -56 297 -77 365 -21 70 -51 171 -54 186 -15 74 -141 374 -224 539
-67 132 -183 335 -200 350 -3 3 -35 48 -71 100 -35 52 -69 100 -75 107 -5 6
-23 29 -40 50 -130 164 -321 367 -456 484 -34 30 -67 59 -73 64 -6 6 -33 28
-61 50 -27 22 -55 45 -62 50 -28 23 -40 32 -73 55 -19 13 -37 27 -40 30 -6 6
-120 82 -220 146 -114 72 -420 224 -560 278 -69 26 -134 51 -145 56 -140 56
-449 133 -665 166 -25 3 -52 8 -60 9 -132 23 -370 42 -462 37z"/>
<path d="M9698 11755 c-2 -2 -39 -6 -83 -9 -44 -4 -109 -11 -145 -17 -36 -5
-94 -14 -130 -20 -36 -5 -83 -14 -105 -19 -22 -6 -52 -12 -67 -15 -176 -32
-420 -110 -644 -205 -148 -64 -415 -200 -409 -210 3 -5 56 -45 118 -90 181
-131 301 -226 386 -304 96 -90 239 -235 296 -301 33 -39 63 -72 66 -75 6 -5
127 -155 170 -211 58 -74 105 -139 121 -168 20 -37 43 -39 70 -8 16 17 128
240 168 332 97 225 223 641 249 825 6 41 12 84 15 95 2 11 7 47 11 80 4 33 9
74 11 90 2 17 7 73 10 126 6 89 5 97 -12 103 -17 5 -90 6 -96 1z"/>
<path d="M9810 11193 c-43 -205 -105 -426 -162 -578 -52 -141 -98 -246 -181
-415 -45 -91 -87 -177 -93 -192 -12 -25 -7 -39 58 -170 94 -190 140 -297 198
-453 43 -118 83 -232 85 -245 0 -3 10 -36 22 -75 11 -38 24 -83 28 -100 5 -16
9 -34 11 -40 1 -5 12 -55 24 -110 12 -55 23 -104 24 -110 2 -5 6 -27 11 -47 4
-21 11 -38 16 -38 10 0 16 24 26 110 10 82 9 2593 -1 2608 -21 34 -34 5 -66
-145z"/>
<path d="M7935 11154 c-49 -35 -97 -67 -105 -71 -8 -3 -17 -9 -20 -12 -3 -3
-27 -22 -55 -40 -27 -19 -52 -38 -55 -41 -3 -3 -25 -21 -50 -40 -25 -19 -50
-39 -56 -45 -6 -5 -35 -30 -64 -55 -73 -61 -283 -271 -350 -349 -30 -35 -60
-69 -65 -75 -9 -9 -29 -35 -88 -111 -4 -5 -21 -28 -38 -50 -152 -196 -353
-556 -462 -830 -94 -237 -184 -541 -211 -715 -3 -19 -10 -57 -15 -85 -5 -27
-12 -77 -16 -110 -3 -33 -8 -71 -10 -85 -3 -14 -7 -56 -10 -95 -3 -38 -8 -85
-10 -102 -4 -37 -1 -38 110 -34 92 3 372 40 465 61 269 61 491 130 685 210
109 45 332 153 407 197 93 55 241 145 252 154 6 5 67 50 134 100 68 50 132 98
141 107 10 10 35 31 57 48 54 44 84 72 194 178 112 110 232 241 304 334 27 35
33 43 54 69 9 11 24 31 32 43 8 13 24 35 36 49 11 14 45 62 75 106 30 44 58
83 63 87 28 20 -100 216 -282 434 -9 11 -37 45 -62 74 -82 99 -277 299 -360
370 -14 12 -39 34 -55 48 -133 118 -452 346 -477 341 -2 0 -43 -29 -93 -65z"/>
<path d="M9268 9838 c-19 -24 -52 -68 -73 -98 -22 -30 -43 -59 -47 -65 -5 -5
-27 -35 -50 -65 -24 -30 -47 -60 -53 -66 -5 -6 -28 -32 -50 -59 -94 -114 -263
-288 -373 -384 -31 -27 -70 -62 -87 -76 -16 -15 -55 -45 -85 -68 -30 -23 -57
-45 -60 -48 -15 -18 -234 -166 -341 -231 -238 -144 -458 -246 -714 -335 -71
-24 -137 -46 -145 -49 -8 -2 -55 -15 -105 -29 -49 -14 -99 -27 -110 -29 -80
-16 -98 -27 -88 -52 3 -10 309 -12 1470 -13 l1465 -2 -6 73 c-4 40 -9 98 -12
128 -3 30 -7 69 -9 85 -2 17 -7 53 -10 80 -4 28 -8 57 -10 65 -2 8 -7 38 -11
65 -3 28 -8 52 -9 55 -2 3 -6 24 -10 48 -20 135 -140 556 -167 586 -4 6 -8 16
-8 23 0 7 -16 47 -35 89 -19 41 -35 78 -35 80 0 9 -150 307 -161 321 -19 22
-35 15 -71 -29z"/>
<path d="M2427 8122 c-26 -2 -46 -6 -43 -10 2 -4 7 -63 10 -132 4 -69 9 -143
11 -165 3 -22 7 -71 10 -110 3 -38 10 -97 15 -130 5 -33 12 -80 15 -105 9 -63
64 -328 76 -366 5 -17 11 -40 14 -50 14 -68 90 -291 134 -394 18 -41 37 -88
44 -104 32 -78 176 -354 221 -426 144 -226 247 -366 386 -525 64 -73 314 -321
375 -371 33 -27 62 -52 65 -55 12 -13 182 -140 250 -185 273 -185 464 -283
820 -424 107 -42 403 -128 500 -145 15 -3 62 -12 106 -20 43 -9 93 -17 109
-20 17 -2 62 -9 100 -14 39 -6 104 -13 145 -16 41 -3 89 -8 105 -10 52 -7 195
-8 202 -1 7 6 9 3743 2 3750 -6 6 -784 15 -1999 22 -1574 9 -1620 9 -1673 6z"/>
<path d="M6263 7886 c3 -122 8 -232 11 -246 2 -14 8 -47 11 -75 12 -82 12 -86
30 -180 18 -98 82 -362 91 -376 3 -5 7 -17 9 -26 7 -37 84 -252 125 -353 65
-158 193 -404 212 -408 15 -3 64 50 108 118 42 64 191 256 260 335 70 79 277
284 350 346 41 35 77 66 80 69 23 27 378 283 420 303 8 4 29 16 45 26 172 108
412 227 604 297 53 20 105 39 116 44 80 30 367 107 510 136 39 8 140 26 170
31 17 2 41 6 55 9 14 2 54 7 90 10 36 4 72 8 80 10 8 1 42 3 76 3 79 1 95 14
99 79 2 31 -2 55 -9 60 -6 4 -807 7 -1780 8 l-1769 0 6 -220z"/>
<path d="M9949 7913 c-14 -3 -15 -182 -15 -1794 l0 -1790 95 6 c87 5 194 15
351 31 157 15 424 66 555 104 39 12 77 23 85 25 28 6 235 76 268 91 60 26 97
42 159 68 57 24 229 106 263 126 8 5 60 34 115 66 96 55 325 204 350 227 7 7
23 19 35 27 12 8 28 20 34 25 6 6 36 30 66 55 145 119 224 194 395 374 11 12
45 50 75 86 30 36 58 67 61 70 13 12 190 251 238 323 39 59 50 84 45 100 -11
36 -201 309 -259 373 -5 6 -26 31 -45 54 -360 440 -895 838 -1420 1055 -87 36
-279 105 -308 111 -13 3 -40 11 -60 19 -62 23 -310 82 -442 104 -124 20 -143
23 -270 36 -36 4 -73 9 -83 11 -10 1 -73 6 -140 10 -67 3 -124 7 -127 8 -3 2
-12 1 -21 -1z"/>
<path d="M9740 7899 c-36 -3 -101 -9 -145 -13 -44 -4 -91 -9 -105 -11 -14 -3
-47 -7 -75 -11 -27 -3 -66 -9 -85 -14 -19 -5 -52 -11 -72 -14 -48 -7 -219 -45
-228 -51 -4 -2 -22 -7 -40 -10 -35 -6 -193 -57 -315 -102 -169 -62 -442 -193
-601 -289 -96 -58 -254 -163 -272 -181 -7 -7 -16 -13 -20 -13 -4 0 -20 -11
-37 -25 -16 -13 -35 -28 -40 -32 -23 -18 -111 -88 -121 -98 -7 -5 -42 -37 -80
-70 -230 -202 -446 -450 -645 -740 -77 -111 -77 -89 -1 -201 116 -170 215
-301 299 -394 17 -19 41 -46 53 -60 67 -77 242 -248 344 -335 32 -27 66 -57
76 -65 39 -33 94 -76 109 -84 9 -5 21 -15 27 -21 6 -5 37 -28 70 -50 32 -22
61 -42 64 -45 3 -3 12 -9 21 -15 9 -5 35 -22 57 -37 23 -16 48 -28 56 -28 13
0 264 162 276 178 3 4 32 27 65 52 33 25 62 47 65 50 3 3 32 28 65 55 120 101
246 223 355 345 36 40 72 80 80 89 8 9 31 37 50 61 49 63 63 80 78 95 6 8 12
18 12 23 0 6 4 12 8 14 28 11 270 400 331 533 13 28 36 77 51 110 109 235 189
468 249 725 28 121 62 310 75 425 23 193 27 253 19 257 -5 2 -37 1 -73 -3z"/>
<path d="M6170 6127 c0 -1359 1 -1475 16 -1481 9 -4 19 -4 22 -2 4 5 17 66 28
136 11 67 65 325 81 380 79 287 159 488 336 850 l57 115 -79 160 c-136 274
-171 356 -245 580 -51 155 -59 179 -74 245 -17 72 -25 104 -28 115 -1 6 -9 44
-18 85 -8 41 -17 84 -20 96 -2 12 -7 43 -11 70 -13 100 -20 119 -43 122 l-22
3 0 -1474z"/>
<path d="M6742 6021 c-24 -15 -149 -279 -249 -526 -26 -64 -62 -170 -83 -245
-7 -25 -16 -56 -21 -70 -22 -67 -91 -397 -103 -492 -4 -26 -11 -80 -16 -120
-5 -40 -10 -108 -10 -151 l0 -79 38 6 c20 3 73 8 117 11 44 3 94 8 110 10 17
2 53 7 80 10 47 6 269 47 345 64 167 38 442 126 567 182 24 10 45 19 48 19 9
0 140 61 220 102 113 58 155 86 155 102 0 15 -39 47 -130 109 -63 42 -206 154
-295 230 -66 57 -340 328 -395 392 -55 63 -208 256 -238 300 -54 80 -103 143
-116 148 -7 3 -18 2 -24 -2z"/>
<path d="M13160 6023 c-8 -2 -39 -40 -69 -85 -122 -182 -263 -351 -461 -548
-148 -148 -172 -170 -317 -286 -128 -103 -211 -164 -222 -164 -4 0 -16 -9 -26
-20 -10 -11 -24 -20 -31 -20 -7 0 -14 -4 -16 -9 -1 -5 -17 -17 -35 -27 -17
-11 -66 -40 -110 -65 -86 -51 -299 -161 -378 -196 -175 -76 -493 -186 -601
-207 -31 -6 -147 -36 -180 -47 -25 -8 -31 -14 -27 -29 5 -20 25 -20 1495 -20
l1491 0 -7 138 c-3 75 -8 146 -10 157 -2 11 -7 45 -10 75 -4 30 -11 78 -17
105 -5 28 -11 61 -14 75 -52 277 -149 592 -262 850 -52 118 -155 319 -166 322
-6 2 -19 3 -27 1z"/>
<path d="M2319 4068 c0 -101 -3 -221 -5 -268 -2 -47 -7 -816 -10 -1710 l-7
-1626 1902 0 1901 0 1 26 c0 14 1 864 1 1890 l1 1865 -1891 3 -1892 2 -1 -182z"/>
<path d="M6261 4073 c1 -158 6 -223 33 -430 4 -29 19 -106 32 -170 14 -65 27
-129 30 -143 3 -14 11 -45 19 -70 14 -44 48 -160 50 -170 0 -3 14 -43 29 -90
26 -79 46 -131 83 -220 8 -19 18 -44 22 -55 19 -49 176 -360 183 -363 4 -2 8
-8 8 -13 0 -8 118 -202 142 -234 5 -5 51 -68 104 -140 53 -71 99 -132 103
-135 3 -3 35 -39 70 -80 97 -113 326 -338 427 -420 11 -8 39 -31 64 -50 24
-19 53 -43 64 -52 34 -31 277 -192 370 -247 77 -45 320 -167 426 -214 91 -40
303 -115 420 -148 25 -7 50 -14 55 -15 61 -17 282 -66 360 -79 55 -10 107 -18
115 -20 8 -1 44 -6 80 -9 36 -4 81 -9 100 -11 19 -2 77 -7 128 -10 l92 -7 0
1886 0 1886 -1805 0 -1806 0 2 -177z"/>
<path d="M9934 2369 l1 -1884 115 1 c107 0 299 12 310 19 3 2 30 6 60 9 30 4
66 9 80 11 14 3 40 7 58 10 150 24 287 54 436 97 130 37 261 82 333 114 17 8
34 14 37 14 20 0 377 174 444 217 29 18 55 33 58 33 8 0 223 142 279 184 28
21 63 47 79 59 29 22 67 52 161 130 111 93 373 365 475 494 8 10 31 39 51 63
36 45 144 204 215 315 50 80 114 197 175 325 28 58 55 113 60 123 20 36 95
233 130 342 48 147 107 388 134 550 13 75 15 94 21 150 3 33 7 66 10 74 3 8 7
104 11 213 l6 198 -124 1 c-68 1 -169 3 -224 5 -55 2 -841 7 -1746 10 l-1645
7 0 -1884z"/>
<path d="M6183 3694 c-3 -8 -6 -738 -7 -1622 l-1 -1606 115 -3 c63 -1 748 -5
1523 -9 l1407 -7 0 21 c0 22 10 18 -221 81 -161 44 -344 103 -434 141 -137 58
-273 120 -330 150 -38 21 -86 46 -105 57 -19 10 -46 26 -60 34 -14 9 -73 46
-132 83 -119 75 -281 194 -408 299 -148 124 -416 400 -518 534 -20 26 -40 53
-44 58 -51 64 -83 109 -154 216 -102 157 -146 234 -235 419 -95 195 -143 306
-154 350 -2 8 -17 54 -34 102 -59 168 -135 478 -156 638 -9 72 -36 105 -52 64z"/>
</g>
</svg>
